<svg id="visual" viewBox="0 0 960 540" width="960" height="540" xmlns="http://www.w3.org/2000/svg" xmlns:xlink="http://www.w3.org/1999/xlink" version="1.1"><rect x="0" y="0" width="960" height="540" fill="#ffffff"></rect><defs><linearGradient id="grad1_0" x1="43.8%" y1="0%" x2="100%" y2="100%"><stop offset="14.444444444444446%" stop-color="#ffffff" stop-opacity="1"></stop><stop offset="85.55555555555554%" stop-color="#ffffff" stop-opacity="1"></stop></linearGradient></defs><defs><linearGradient id="grad2_0" x1="0%" y1="0%" x2="56.3%" y2="100%"><stop offset="14.444444444444446%" stop-color="#ffffff" stop-opacity="1"></stop><stop offset="85.55555555555554%" stop-color="#ffffff" stop-opacity="1"></stop></linearGradient></defs><g transform="translate(960, 0)"><path d="M0 270C-31.1 235.5 -62.2 200.9 -105.5 182.7C-148.8 164.5 -204.4 162.7 -233.8 135C-263.3 107.3 -266.6 53.6 -270 0L0 0Z" fill="#4760ff"></path></g><g transform="translate(0, 540)"><path d="M0 -270C54.4 -267.1 108.9 -264.2 135 -233.8C161.1 -203.4 158.9 -145.6 176.7 -102C194.4 -58.4 232.2 -29.2 270 0L0 0Z" fill="#4760ff"></path></g></svg>