<?xml version="1.0" encoding="iso-8859-1"?>
<!-- Generator: Adobe Illustrator 19.0.0, SVG Export Plug-In . SVG Version: 6.00 Build 0)  -->
<svg version="1.1" id="Layer_1" xmlns="http://www.w3.org/2000/svg" xmlns:xlink="http://www.w3.org/1999/xlink" x="0px" y="0px"
	 viewBox="0 0 460 460" style="enable-background:new 0 0 460 460;" xml:space="preserve">
<g id="XMLID_930_">
	<polygon id="XMLID_931_" style="fill:#DAE0E7;" points="52.5,0 52.5,460 230,460 240,230 230,0 	"/>
	<polygon id="XMLID_932_" style="fill:#BEC8D6;" points="230,0 230,460 317.5,460 327.5,380 407.5,370 407.5,0 	"/>
	<polygon id="XMLID_933_" style="fill:#DAE0E7;" points="317.5,370 317.5,460 407.5,370 	"/>
	<polygon id="XMLID_934_" style="fill:#A3B1C4;" points="407.5,460 407.5,370 317.5,460 	"/>
	<rect id="XMLID_935_" x="92.5" y="370" style="fill:#A3B1C4;" width="137.5" height="30"/>
	<path id="XMLID_936_" style="fill:#A3B1C4;" d="M230,90l10-15l-10-15H92.5v280H230l10-15l-10-15h-25.833V150H230l10-15l-10-15
		h-25.833V90H230z M174.167,310H122.5V150h51.667L174.167,310L174.167,310z M174.167,120H122.5V90h51.667L174.167,120L174.167,120z"
		/>
	<path id="XMLID_940_" style="fill:#466289;" d="M230,60v30h25.833v30H230v30h25.833v160H230v30h137.5V60H230z M337.5,310h-51.667
		V150H337.5V310z M337.5,120h-51.667V90H337.5V120z"/>
</g>
<g>
</g>
<g>
</g>
<g>
</g>
<g>
</g>
<g>
</g>
<g>
</g>
<g>
</g>
<g>
</g>
<g>
</g>
<g>
</g>
<g>
</g>
<g>
</g>
<g>
</g>
<g>
</g>
<g>
</g>
</svg>
